<?xml version="1.0" encoding="iso-8859-1"?>
<!-- Uploaded to: SVG Repo, www.svgrepo.com, Generator: SVG Repo Mixer Tools -->
<svg fill="#000000" version="1.1" id="Capa_1" xmlns="http://www.w3.org/2000/svg" xmlns:xlink="http://www.w3.org/1999/xlink" 
	 viewBox="0 0 60 60" height="50px" width="50px" xml:space="preserve">
<g>
	<g>
		<path d="M52.924,22.235C52.296,17.009,47.83,13,42.5,13c-1.766,0-3.478,0.436-5.009,1.269C34.643,9.76,29.755,7,24.5,7
			c-6.839,0-12.849,4.623-14.827,11.321C4.03,19.62,0,24.644,0,30.5c0,5.55,3.737,10.467,9,12.003C9.002,47.188,12.814,51,17.5,51
			c2.388,0,4.628-0.992,6.223-2.708C26.084,51.263,29.647,53,33.5,53c4.881,0,9.338-2.891,11.36-7.279
			C45.724,45.906,46.607,46,47.5,46C54.393,46,60,40.393,60,33.5C60,28.671,57.242,24.313,52.924,22.235z M55.993,39.649
			l-0.236-1.595l-0.989,0.146c-0.646,0.096-1.279,0.155-1.88,0.177l-0.999,0.035l0.071,1.999l1-0.036
			c0.674-0.023,1.38-0.09,2.101-0.196l0.602-0.089C53.736,42.472,50.795,44,47.5,44c-1.005,0-1.997-0.142-2.948-0.42
			c-0.504-0.148-1.033,0.119-1.218,0.608C41.806,48.263,37.854,51,33.5,51c-3.629,0-6.952-1.835-8.89-4.908
			c-0.181-0.287-0.496-0.463-0.836-0.467c-0.003,0-0.007,0-0.01,0c-0.336,0-0.649,0.169-0.835,0.449
			C21.722,47.906,19.692,49,17.5,49c-3.584,0-6.5-2.916-6.5-6.5c0-0.224,0.011-0.445,0.033-0.663
			c0.051-0.506-0.285-0.97-0.782-1.077C5.47,39.717,2,35.402,2,30.5c0-5.1,3.638-9.447,8.649-10.338
			c0.387-0.068,0.697-0.357,0.794-0.738C13.003,13.287,18.371,9,24.5,9c4.864,0,9.373,2.732,11.767,7.13
			c0.135,0.248,0.369,0.428,0.644,0.494c0.275,0.067,0.565,0.013,0.799-0.146C39.123,15.511,40.779,15,42.5,15
			c4.481,0,8.208,3.5,8.483,7.968c0.023,0.378,0.259,0.711,0.608,0.859C55.484,25.476,58,29.273,58,33.5
			C58,35.798,57.25,37.919,55.993,39.649z"/>
		<rect x="22" y="37" width="15" height="2"/>
		<circle cx="40" cy="30" r="2"/>
		<path d="M25,30v-2H15v2h6c0,1.103,0.897,2,2,2S25,31.103,25,30z"/>
		<path d="M43.936,33.646l-0.08-0.213C45.182,32.004,46,30.098,46,28c0-4.411-3.589-8-8-8s-8,3.589-8,8s3.589,8,8,8
			c1.562,0,3.016-0.457,4.249-1.234c0.179,0.363,0.495,0.925,0.997,1.564l0.618,0.786l1.572-1.236l-0.618-0.786
			C44.205,34.313,43.949,33.682,43.936,33.646z M32,28c0-3.309,2.691-6,6-6s6,2.691,6,6s-2.691,6-6,6S32,31.309,32,28z"/>
		<path d="M47.56,37.332l-0.892-0.453l-0.906,1.783l0.892,0.453c0.64,0.325,1.328,0.592,2.044,0.792l0.963,0.27l0.539-1.926
			l-0.963-0.27C48.646,37.816,48.082,37.598,47.56,37.332z"/>
	</g>
</g>
</svg>